<svg id="svg" xmlns="http://www.w3.org/2000/svg" viewBox="0 0 367.6 376.4"><defs><style>.cls-1{fill:#31166c;}</style></defs><g id="svgg"><path id="path0" class="cls-1" d="M177.2,13.6C142.7,18.5,98.8,40.3,68,67.8-12.3,139.4,3.7,294.2,98.1,357.5c39.7,26.7,104.5,37.3,167.9,27.4,24.9-3.9,63.4-19.4,80.6-32.5a20.8,20.8,0,0,1,4.2-2.7c.6-.2,5.3,7.1,10.5,16.2l9.4,16.5,6.7.3,6.7.3V228H252.5l-4.4-3.3a21.4,21.4,0,0,1-6.2-7.6c-1-2.3-2.3-4.2-2.9-4.2s-1-1.1-1-2.4-1.1-5.4-2.5-9c-3.5-9.2-3.4-15,.3-17.3a18.3,18.3,0,0,0,4.1-3.5c1.1-1.5,2.9-1.8,10.9-1.8s9.7-.1,11.5-2.5,2.9-2.5,4-2.5c5.5,0,14.3-8.5,16.8-16.2,1.3-4,2.9-8.4,3.5-9.7,2-4.4,1.2-10.7-2.2-16.1a46.6,46.6,0,0,1-4.3-9c-1.2-4-5.3-8.9-6.5-7.7s.1,1.5,1,2.5a6.5,6.5,0,0,1,1.7,3.5c0,.9,1.1,3.8,2.4,6.4,4.5,8.9,4.4,9-1.5,7.8-4.3-.9-5.5-1.6-7.1-4.3s-4.9-4.5-4-1.3c.3,1.1.9,2,1.3,2s1.7,3.1-.1,6.6-1.8,7.5,2.1,12.4c5.2,6.6,3.5,18.1-2.8,19.5-3.9.8-4.1-.3-.7-4.3s3.1-6.2-2-10.5c-2.5-2.1-4.5-4.4-4.5-5.2a1.5,1.5,0,0,0-1.5-1.4c-3.2,0-.6,5.8,3.6,8.3s3.9,8.1-.1,8.5c-2.3.3-2.5.6-2.1,4.3s-.2,4.6-.9,5.5c-2.4,2.9-15,1.2-15-2.1s1.5-7.3,5.5-10,5.8-5.5,4.6-10c-.7-2.7-2.7-4.5-11.6-10.8l-2.6-1.8,2.1-3c1.6-2.3,2.4-2.7,3.5-1.9,2.6,2.1,8.8.8,10.3-2.3.7-1.5,2-2.7,2.8-2.7s1.8.2.3,5,.7,8,3.3,8,.8-12.7-1.6-16.2-2.2-4.4-1.9-6.9l.5-3.4-2.5,2.3c-3.1,2.8-5.8,2.1-5.8-1.7,0-1.8-1.2-3.9-3.5-6.1s-3.5-2.9-3.5-2.4a6,6,0,0,0,2,2.9c3,2.7,2.5,4.9-2,9.1s-5.2,7.5-3,8.9,1,4.2-1.5,5.9-3.5,2.1-3.5-.9c0-1.4-.4-2.5-1-2.5s-1,1.8-1,3.9c0,4.3,2.4,6.8,10,10.5s10.2,8.9,6.8,12.3-3.8,1.3-3.8-2.3c0-1.9-.4-3.5-1-3.5s-1,2.1-1,4.6-.6,5.3-2.5,7.6a10.3,10.3,0,0,0-2.5,6.2c0,4.7-1.9,6.9-5.3,6.1-5-1.2-4.7-5,.7-10s6.3-9.3,3.7-10.9c-.5-.3-.7-2.1-.4-4.1s.1-4-3.5-7.9c-7.3-7.9-5.9-18.6,3-24.2,2.1-1.3,3.8-2.8,3.8-3.4s-1.3-1.2-2.7.1-3.5,1.1-6.3,1c-5-.1-5.1,0-3.6,1.7s1.3,9.3-2.2,10.7-10.9-11.7-7.1-14c1.9-1.2,1-2.5-1.8-2.5s-7.2,2.4-7.2,4.1,1.1.9,2.5.9c3.6,0,3.6,6.2,0,8.6a8.4,8.4,0,0,0-3.1,3.5c-.6,1.8-.8,1.8-5-.7s-5.9-1.7-1.8,2.1,1.9,5.1-5.2,8.7c-5.4,2.7-5.5,3-5.5,12.9s1.3,11.9,4.8,11.9c1.8,0,1.4-1.9-.8-3.2-4-2.5-2.7-8.1,1.8-7.5,10.5,1.5,12.3,2.6,12.3,7.7s-5.3,10.9-8.9,10.9c-15.1,0-22.6-29.4-9-35.5,4.9-2.2,6.3-4.9,1.9-4s-3.5.1-2.4-4.3,5.4-5.2,13.1-5.4c6.2-.1,6.4-.2,2.3-.7-10.2-1.4-5.2-14.1,5.4-14.1,3.1,0,3.6-.3,3.6-2.5s.5-2.5,3-2.5,3.8.7,8.6,6.8c2.7,3.4,6.9,4.4,9.2,2.1s1.3-2.8-2.8-2.8-4.3-.5-6-3.2c-3.1-5.1-2.3-6.3,4-6.1,13.3.5,14.9,1.1,22.3,7.9,3.8,3.5,7.5,6.4,8.3,6.4s2.9,1.3,4.6,3c4.4,4.1,4.5,2.2.3-3.8s-4.3-6.4-1.1-5.6,2.5.2,2.5-.8-2.1-3.8-4.9-3.8-4.5-1.3-7-2.9-6.2-3.1-12.6-3.6-9.3-1.4-12.4-3.1c-5.3-2.9-5.5-2.9-4.1-.3s.9,2.3.7,2.5-6.8-1.9-7.8-3.7S215,92.2,215,94s-.7,1-1.5,1a1.5,1.5,0,0,0-1.5,1.5c0,2-.1,1.9-6.2-1s-7.4-3.2-12.7,1.3c-2.5,2.1-5.9,4.2-7.6,4.6-4.2,1-11.9,9.6-19.2,21.4L160,132.9v25.6l7.5,6.5c7.5,6.5,7.5,6.5,14.8,7s8,1.1,10.9,3.3a17.1,17.1,0,0,0,9,3.3c19.3,2.1,23.3,6.6,24.2,26.9.3,6.9,1.1,12.7,2.3,15.7,3.2,8.4,2.1,8.9-21.5,8.6l-19.6-.3-6.2,3.4c-6.7,3.6-11.7,9-7.1,7.6a24.9,24.9,0,0,0,5.8-3.3c5.2-3.9,15.7-4.2,27.7-.8s36.6,4.7,90.1,4.7H339v79l-5.9,5.9c-37.9,37.9-108.7,51.1-163.8,30.5C99.2,330.2,68.5,283.1,68.6,201.5c.1-100.1,54.7-164,142.9-167.2C282.4,31.8,348,68.7,348,111.2V117h27V18H348.8l.3,24c.4,26.3-.6,30.2-4.7,19.2-6.9-18.6-52.9-40-103-47.8-11.4-1.8-51.2-1.7-64.3.2M218,97.3c0,.7,1,1.8,2.1,2.3s2.1,1-.7,2.8-2.8,1.8-4.1,0-1.7-5.1-.1-5.8,2.8-.7,2.8.7M206,99c.9,1.8.8,2-1.5,2-5.1,0-2.1,3.6,3.5,4.2l3.5.3-3.9,2.1-3.9,2.1-2.9-3.3c-3.8-4.3-5.5-3.3-2.3,1.4s2.6,5.2-.9,2.9c-5.9-3.9-11-1.2-12.2,6.4-.4,2.5-1.4,5.3-2.2,6.2s-1.3,1.8-.1,1.8c2.9,0,4.8-2.5,5-7,.6-8.9,9.8-7.4,9.8,1.6,0,2.7-.4,3.4-2,3.4s-2-.7-2-2.6-.5-2.4-1.2-2.2-1.1,1.8-.9,4.1a8.3,8.3,0,0,1-1.8,6.3,11,11,0,0,0-2.1,7c0,3.4-.3,4.2-1.5,3.8s-1.5-1.9-1.5-4.3-.7-4.4-2-5.6-3.9-1.2-2.2,1.5a11.9,11.9,0,0,1,1.2,5.3c0,1.8.6,3.9,1.2,4.5s1,1.6,0,3.2a10,10,0,0,0-1.2,4.5c0,2.9-2.1,3.3-4.4.9s-2-5.7-.5-8.5.7-1.9-1.5-1.9a4.1,4.1,0,0,1-3.6-2.1c-1.8-3.3-7.3-2.3-8,1.5s-3,4.8-3,1.6,2.8-8,6-8a4.2,4.2,0,0,0,4-2c.9-1.8.8-2-1.5-2-4.1,0-3.2-5.4,1-5.8,7.2-.7,12.7-5.2,6.3-5.2h-3.1l2.3-2.5a8.1,8.1,0,0,1,4.8-2.5c2.4,0,6.2-2.5,6.2-4s-1.2-.5-2.6-.2-2.6.5-.9-2.1a5.2,5.2,0,0,1,4.2-2.6c1.4,0,4-1.3,5.9-3,4.2-3.7,10.6-4.2,12.3-1m45,26.1c3.6-1.3,5-.8,3.2,1.1s-1.2,2.7-1.2,4.5c0,4-4,4.6-8.4,1.2s-3.2-3.6-1-6.8,1.7-2.2,2.8-.6,1.7,1.5,4.6.6M223.8,134c1.7,0,2.9,2.4,3.7,6.8l.7,4.3H225c-2.5,0-3.1.4-2.8,1.8s1.3,1.7,6.1,1.5,5.7-.2,5.7,2.3-9.8,3.8-13.8,1-3.1-7.5-.7-9.4,1.9-3,.1-3-4.6,4.2-4.6,9.2,2.8,7.8,12.3,7.8c7,0,7.7.5,7.7,6.1,0,2.3-.8,3.4-3.9,5.3s-4,3.2-4.5,6.5-1.1,4.1-2.6,4.1a1.9,1.9,0,0,1-1-3.5c1.8-1.1,1.1-8.1-1.1-10.9s-3.9-3.4-3.9-1.1.4,1.5,1,1.5,1.3,9.7-.2,10.2-8.7-.3-8.7-1.1,1.4-2.1,3-4c3.7-4.1,3.7-4.2-.1-8.2s-3.2-3.9-1.4-9.7c.4-1.3.3-2.2-.4-2.2s-1.3.9-1.7,2c-.9,2.7-4.9,3.5-9.5,2s-6.8-8-1.3-8c2.6,0,5.3-2.5,13.5-12l3.7-4.3,3.5,2.6c1.9,1.5,3.9,2.6,4.4,2.6m54.7,5.2c4.2,1.1,4.5,1.4,4.5,4.6s-.3,3.3-1.5,2.8l-3-1.2c-2-.8-1.9.9.5,5.3s2.7,9.9-1,11.7l-3,1.5.6-5c.6-4.8.4-5.1-3-8.3-8.9-8.1-5.6-14.6,5.8-11.5m-110,3.8c-.5,1.6.1,2.3,3,3.5s3.9,3.6.5,3.6a3.9,3.9,0,0,0-3,2c-1.5,2.8-3.3,2.5-5.3-.9s-2.2-7.6.5-8.9,5-1.5,4.3.7m9.2,11.3c2.4,2.5,6.5,12.6,5.7,13.9s-7.1.8-9.8-1.2c-6-4.7-7-9.9-2.4-12.7s4-2.6,6.5.1" transform="translate(-16.4 -12.1)"/></g></svg>