<?xml version="1.0" encoding="utf-8"?>
<!-- Generator: Adobe Illustrator 21.1.0, SVG Export Plug-In . SVG Version: 6.00 Build 0)  -->
<svg version="1.1" id="svg" xmlns="http://www.w3.org/2000/svg" xmlns:xlink="http://www.w3.org/1999/xlink" x="0px" y="0px"
	 viewBox="0 0 410 130" style="enable-background:new 0 0 410 130;" xml:space="preserve">
	<defs><style>.cls-1{fill:#31166c;}</style></defs>
<g id="svgg">
	<path id="path0" d="M263.3,1.2c-0.3,0.4-0.6,1.1-0.6,1.6c-0.1,0.4-0.6,2.1-1.3,3.7c-2.3,5.8-2.5,6.4-2.7,7.3
		c-0.3,1.7-2.4,6.1-3,6.5c-0.6,0.4-7.6,0.8-17.4,1c-2.7,0.1-4.9,0.3-4.9,0.4c0,0.5,3.9,3.4,4.5,3.4c0.3,0,0.9,0.5,1.3,1.1
		c0.4,0.6,1,1.1,1.5,1.1s0.9,0.4,1.1,0.9c0.2,0.5,0.7,0.9,1.1,0.9c0.4,0,1,0.3,1.2,0.7c0.3,0.4,1.1,1.1,1.9,1.5
		c0.8,0.4,2.2,1.4,3.2,2.3l1.8,1.5l-2.7,9.4c-1.5,5.2-2.8,9.4-2.8,9.4c0,0-0.2,0.4-0.3,1c-0.2,1.3,0.2,1.2,2-0.1
		c0.8-0.6,1.6-1.1,1.9-1.1c0.2,0,0.8-0.3,1.1-0.6c1.6-1.4,4.8-3.4,5.7-3.8c0.6-0.2,1-0.6,1-0.9c0-0.3,0.3-0.5,0.7-0.5
		c0.4,0,1.5-0.6,2.5-1.4s2.1-1.4,2.4-1.4c0.3,0,0.6-0.3,0.8-0.6c0.1-0.3,1.1,0.1,2.2,0.9c1.1,0.8,2.5,1.7,3.1,2
		c0.6,0.3,1.8,1,2.6,1.5c0.8,0.5,2.3,1.6,3.4,2.2c1.1,0.7,2.3,1.5,2.6,1.8c0.9,0.8,4.9,2.9,5.1,2.7c0.1-0.1-0.3-1.8-1-3.8
		c-0.6-2-1.1-3.7-1.1-3.8c0-0.1-0.1-0.5-0.3-0.9c-0.3-0.9-2.1-7.2-2.3-8.1c-0.1-0.4-0.4-1.3-0.7-2.1c-0.7-1.7,0.1-2.6,5.1-5.9
		c1.7-1.1,3.7-2.7,4.6-3.5c0.8-0.8,1.7-1.5,1.9-1.5c0.2,0,1-0.7,1.9-1.5c0.9-0.8,2.2-1.7,2.9-2c2.1-0.8,1-1.3-3.2-1.4
		c-2.1-0.1-7.1-0.2-11.1-0.3l-7.2-0.2l-3.2-8.3c-1.8-4.6-3.5-9.1-3.9-10.2C264,0.9,263.7,0.6,263.3,1.2 M54.2,3.5
		c-10.1,0.6-28.6,7.9-33.1,13c-0.2,0.2-1.8,1.6-3.7,3.2c-7,5.8-13.7,16.1-14.9,22.8c-0.1,0.6-0.6,2.4-1.2,4c-1,3-1.5,23.6-0.6,27.4
		c0.8,3.4,4.4,13.9,5,14.6c0.2,0.2,1,1.6,1.8,3.3c5.2,10,15.5,20.5,23.6,24.2c21.7,9.8,52.5,8,70.7-4.2l2.9-1.9l2.9,5.1
		c2.9,5,3,5.2,5.2,5.3l2.3,0.2l0-24.6l0-24.6l-16.9-0.1c-9.3-0.1-18.4-0.1-20.2,0c-3.3,0.1-7.2-1.4-7.2-2.8c0-0.3-0.6-1.9-1.4-3.6
		c-2.5-5.5-1.4-8.3,3.4-8.3c4.9,0,12.4-5.9,11.3-9c-0.1-0.4,0-0.7,0.2-0.7c1.7,0-1.2-8.9-3.5-10.9c-1.1-0.9-1.1-0.5,0.6,3.2l1.4,3.2
		L81.2,42c-0.8-0.2-2-0.9-2.5-1.6c-1.1-1.4-1.5-0.5-0.5,1.4c0.4,0.8,0.4,1.1,0,1.1c-1,0-0.7,2.9,0.4,4.3c1.3,1.7,1.1,6-0.3,6
		c-0.7,0-0.8-0.2-0.2-0.7c1.3-1.3-1.1-6.2-3.1-6.2c-0.8,0,0,2,1.3,3.2c1.5,1.4,1.5,1.4,0.3,1.8c-0.9,0.2-1.3,0.8-1.3,1.9
		c0,1.9-0.7,2.5-2.6,2c-1.8-0.4-2-2.9-0.3-3.5c2.5-0.8,2.1-4.8-0.6-6.4c-2.1-1.2-1.9-2.2,0.4-2c1.3,0.1,1.9-0.1,2.4-1.1
		c0.7-1.3,0.7-1.3,0.4,0.4c-0.2,1.6,0.8,3.5,1.6,2.8c0.7-0.7,0.4-4.6-0.4-5.2c-0.4-0.4-0.7-1.3-0.5-2.1c0.2-0.8,0-1.4-0.4-1.4
		c-0.3,0-0.6,0.3-0.6,0.6c0,1-1.7,0.6-1.7-0.4c0-1.3-1.3-3-2.2-3c-0.5,0-0.5,0.4,0.2,1.4c0.9,1.4,0.9,1.5-0.5,3
		c-1.5,1.7-1.8,2.8-0.8,3.1c0.4,0.1,0.3,0.5-0.3,1c-0.8,0.6-0.9,0.6-0.9-0.2c0-1.4-1-1.1-1.3,0.4c-0.2,1.2-0.3,1.2-0.3-0.2
		c-0.1-1.4,1.7-4,2.7-4c0.3,0,0.6-0.5,0.8-1.1c0.3-1.2-0.4-1.6-1.1-0.5c-0.2,0.3-1.1,0.5-2,0.4c-1.7-0.3-2,0.1-1.1,1.1
		c0.7,0.7,0.1,2.5-0.9,2.5c-1.3,0-2.2-1.6-1.8-3.4c0.4-2-1.1-2.4-2.7-0.7c-1.2,1.3-1.2,1.8-0.1,1.8c1.3,0,1,1.3-0.4,2.2
		C59.6,41,59,41,58.6,40.6c-0.3-0.3-0.8-0.6-1.1-0.6c-0.7,0-0.5,1,0.4,2c0.8,0.8,0.7,1-1.1,2.1c-1.1,0.7-2.1,1.6-2.1,2.1
		c0,0.5-0.1,1.5-0.3,2.2c-0.3,1.7,0.7,4.2,1.7,4.2c0.5,0,0.9-0.4,0.9-0.9c0-0.5-0.3-0.9-0.6-0.9c-0.3,0-0.6-0.4-0.6-0.9
		c0-1,0.4-1.1,2.7-0.2c1.6,0.6,1.7,0.7,1.2,2.1c-1,2.6-2,3-4.2,1.7c-3.5-2.1-3.6-7.1-0.3-10c1.8-1.6,1.9-1.8,0.8-1.6
		c-1.8,0.3-1.7-1.1,0.2-1.9c0.8-0.4,2.3-0.7,3.3-0.7c1.2-0.1,1.4-0.2,0.6-0.3c-3.1-0.6-1.5-4.2,1.8-4.2c0.4,0,0.8-0.4,0.8-0.8
		c0-0.6,0.3-0.7,1.3-0.3c0.7,0.3,1.2,0.7,1.2,1c-0.3,1.2,2.7,2.1,3.7,1.1c0.9-0.9,0.9-1-0.6-1c-1.8,0-3.2-2-1.8-2.5
		c1.6-0.6,6.1,0.6,7.1,1.9c1,1.3,5.8,4.7,6.2,4.3c0.1-0.1-0.3-1-1-2c-1.1-1.5-1.1-1.7-0.3-1.7c1.1,0,0.9-1.2-0.3-1.7
		c-0.5-0.2-1.6-0.8-2.5-1.2c-0.9-0.5-2.7-0.9-4-1s-2.7-0.4-3.2-0.7c-1.4-0.7-2.9-0.6-2.4,0.1c0.2,0.4-0.4,0.1-1.4-0.7
		c-1.5-1.1-2-1.2-3.3-0.6c-1.1,0.5-1.8,0.5-2.6,0.1c-1.2-0.6-3.4-0.3-3.4,0.6c0,0.2-1,0.9-2.3,1.5c-1.3,0.6-2.3,1.2-2.3,1.4
		c0,0.2-0.7,1.1-1.6,2.1c-7.3,8.1-5.8,19.7,2.5,19.7c1.5,0,2.8,0.4,3.4,0.9c0.5,0.5,1.8,1,2.8,1.1c5.9,0.5,7.4,2,7.5,7.7
		c0.1,2.1,0.4,4.4,0.8,5.1c1.3,2.4,0,3-6.3,2.6c-3.6-0.2-6.2,0-7.2,0.4c-1.8,0.7-4.8,3.4-4.4,3.8c0.4,0.4,3.7-1.1,3.7-1.7
		c0-0.8,5.5-0.6,7.6,0.2c1,0.4,3.2,0.8,5,0.9c1.7,0.1,3.8,0.2,4.6,0.3c0.8,0.1,8.2,0.2,16.4,0.2l15,0.1l0,12.1
		c0,13.7,0.3,12.8-5,16.9c-16,12.4-41.8,12.6-59.4,0.4c-11.8-8.1-16.2-15.4-18.9-31.4c-1.3-7.7-0.1-25.8,2-30.8c0.5-1.1,0.7-2,0.6-2
		c-0.4,0,1.6-4.8,2.2-5.2c0.3-0.2,0.6-0.7,0.6-1.1c0.2-1.4,2.1-4.5,2.7-4.5c0.3,0,0.6-0.3,0.6-0.7c0-1.4,6.9-8,11.7-11.2
		c1.3-0.8,2.4-1.6,2.6-1.8c1.8-1.9,13.9-5.2,19.9-5.5c12.1-0.6,30.5,4.6,36.5,10.5c0.4,0.4,1.3,1,1.9,1.3c0.6,0.3,1.1,0.8,1.1,1.1
		s0.5,1,1.1,1.7c1.3,1.3,2.9,6.2,2.9,9v1.9h4.6h4.6V20.8V5.1h-4.6h-4.6l0.3,7.8c0.2,6.6,0.1,7.6-0.5,6.7c-0.4-0.6-0.8-1.4-0.8-1.7
		c0-2.4-12-9.4-19.7-11.5C71.2,3.3,66.5,2.8,54.2,3.5 M59.1,30.8c0.2,0.3,0.1,0.6-0.3,0.6c-0.3,0-0.6,0.3-0.6,0.6
		c0,0.3,0.6,0.6,1.3,0.6c1.2,0,1.2,0.1,0.3,1c-0.9,0.9-1,0.9-2.1-0.1c-1.2-1.1-1.7-0.5-0.5,0.7c0.8,0.8-3.5,0.7-4.4-0.1
		c-0.9-0.8-0.3-2,0.8-2c0.5,0,1.4-0.4,2-0.9C56.9,30.1,58.5,30,59.1,30.8 M63,30.6c0.7,0.3,0.8,0.5,0.3,1.1
		c-0.7,0.9-1.7,0.5-1.7-0.7C61.6,30.1,61.7,30.1,63,30.6 M52.9,36.8c-0.2,1.1-0.1,2,0.2,2c0.3,0,0.5-0.7,0.5-1.7
		c0-0.9,0.4-1.8,0.8-2c1-0.4,2.7,1.2,2.5,2.4c-0.2,1.3-1.5,1.5-1.8,0.3c-0.2-0.7-0.3-0.5-0.3,0.5c0,0.8-0.3,1.7-0.6,1.9
		s-0.6,1-0.6,1.7c0,0.8-0.3,1.4-0.6,1.4c-0.3,0-0.6-0.6-0.6-1.4c0-0.8-0.3-1.6-0.6-1.8c-0.4-0.3-0.5,0-0.2,0.9c1,3.3,0.4,6.9-1,5.8
		c-0.6-0.5-1.2-0.4-2.4,0.2c-1.9,1-2,1-2.6-1.8c-0.6-2.6-0.2-3.6,1.7-4.4c1.2-0.5,1.3-0.7,0.5-0.9c-1.5-0.4-0.9-1.5,1.2-2
		c1.7-0.4,2.6-1.6,1.3-1.6c-0.3,0-0.4-0.4-0.2-0.9C50.8,33.7,53.2,34.7,52.9,36.8 M73.9,39.8c-0.2,0.4-0.3,1.2-0.3,1.6
		c0,0.5-0.4,0.7-1,0.4c-2.8-1-2.9-2.8-0.1-2.8C73.8,39,74.1,39.2,73.9,39.8 M64.7,41.9c1.6,1.5,2,3.7,0.7,3.7
		c-0.5,0-0.9,0.3-0.9,0.6c0,0.4,0.6,0.5,1.7,0.2c1.3-0.3,1.7-0.2,1.7,0.5c0,0.6-0.6,0.9-1.9,0.9c-2.4,0-3.7-1.3-2.7-2.9
		c0.9-1.4,0.9-1.7-0.2-1.3c-2.8,1.1-0.4,5.3,3.1,5.3c2.4,0,2.8,1.4,0.9,3.3c-0.8,0.9-1.5,1.9-1.5,2.2c0,0.4-0.3,0.7-0.6,0.7
		c-0.3,0-0.4-0.7-0.2-1.6c0.2-1.1,0-1.9-0.7-2.6c-1.2-1.2-1.9-0.8-0.9,0.5c0.9,1.1,0.2,3.4-0.9,2.9c-0.5-0.2-1.1-0.3-1.5-0.3
		c-0.3,0-0.2-0.5,0.3-1c1.2-1.3,1.2-1.7,0-2.8c-0.6-0.6-0.8-1.4-0.6-2.3c0.3-1.2,0.2-1.3-0.7-0.7c-1.3,0.8-4.1,0.2-4.1-0.9
		c0-0.5,0.6-1,1.4-1.2c0.8-0.2,2-1.4,2.9-2.6C61.9,40.1,62.6,40,64.7,41.9 M46.2,43.4c0,0.6,0.3,1,0.6,0.8s0.6,0,0.6,0.5
		c0,0.7,1.6,1.8,2,1.4c0.8-0.9,0.8-2.7,0-2.7c-0.5,0-0.9-0.3-0.9-0.6c0-0.3-0.5-0.6-1.1-0.6C46.6,42.2,46.2,42.6,46.2,43.4
		 M83.3,44.8c0,0.4-0.4,0.8-0.9,0.8c-0.7,0-0.8,0.3-0.5,1c1,2.3,0.9,3.5-0.1,4.1c-1,0.5-1.1,0.4-0.9-1c0.2-1-0.2-1.9-1-2.6
		c-1.3-1.2-1.6-3.5-0.5-3.9C80.6,42.8,83.3,44,83.3,44.8 M72.1,47.1c0.7,0.5,1,1.3,0.8,2.1l-0.3,1.3l-0.4-1.3
		c-0.6-1.9-1.4-1.6-1.4,0.6c0,1.1-0.4,2.2-0.9,2.6c-0.5,0.4-0.9,1.3-0.9,2c0,1-0.2,1.2-1.1,1c-1.4-0.4-1.5-1.7-0.1-2.1
		c1.2-0.4,2.6-3.1,2-4C68.2,46.9,69.7,45.3,72.1,47.1 M51.7,50.6c1,2.4,1,2.4-0.5,2.4c-2.8,0-4.8-3.5-2.9-4.9
		C49.6,47.3,50.6,48,51.7,50.6 M142.7,65.8c-2,0.4-4.2,1-4.9,1.3c-0.6,0.4-2,1-3.1,1.5c-10.6,4.7-16.6,21.5-12.5,35.2
		c0.4,1.4,0.8,2.7,0.8,2.9c0,0.2,0.7,1.3,1.5,2.6c0.8,1.3,1.7,2.8,2.1,3.4c0.3,0.6,1.7,1.9,3,2.9c1.3,0.9,2.7,2,3.2,2.4
		c8.6,7.9,30.6,5.8,39.5-3.8l1.3-1.4l-1.2-1.6c-1.5-2.2-2-2.1-5.4,0.8c-8.7,7.6-24.7,7.9-29.5,0.7c-0.2-0.3-1.1-1.4-2.1-2.4
		c-2-2.2-2.9-5-3.4-10.4l-0.3-4h20.9h20.9l0-4.1c0-4.9-2.1-12.5-4.1-15C161.9,67.5,153.1,63.9,142.7,65.8 M214,65.7
		c-6,1-10.8,4-12.9,8c-1.1,2.1-1.4,2-0.7-0.5c0.3-1.1,0.5-3,0.4-4.1l-0.2-2.1l-9.3-0.2l-9.3-0.2V69v2.3h4.6h4.6v22.8V117h-4.6H182
		v2.6v2.6h14h14v-2.6V117h-4.6h-4.6l0.2-17.5c0.2-19.6,0.4-20.5,4.3-23.9c6.6-5.9,16-5.4,19.6,1l1.4,2.5l0.2,19l0.2,19H222h-4.6v2.6
		v2.6h14h14v-2.6V117h-4.6h-4.6l-0.1-17c-0.1-20.3-0.6-25.8-2.2-25.8c-0.3,0-0.6-0.5-0.8-1.1C231.4,67.8,222.4,64.3,214,65.7
		 M373.2,65.7c-6,0.9-9.4,3.1-12.5,8.2c-3.8,6.3-2,17.7,3.1,19.8c0.9,0.4,1.8,0.9,2,1.1c0.4,0.6,5.8,2.7,12,4.6
		c10.9,3.4,13.1,5.1,12.9,10.2c-0.4,13.6-27.2,10.6-27.2-3.1v-2h-2.9h-2.9v8.8v8.8h2.9h2.9l0-3.3c0-1.8,0.2-2.9,0.4-2.4
		c2.1,5.5,18.2,8.6,25.9,5c12.6-5.8,13-23.3,0.6-29c-4.2-2-4.6-2.1-12-4.3c-3.9-1.1-7.4-2.4-7.9-2.9c-0.4-0.4-1.1-0.8-1.5-0.8
		c-3.7,0-3.5-8.4,0.3-11.7c6.8-5.9,21-1.1,21,7.1c0,1.7,0.1,1.7,2.9,1.7h2.9v-7.4v-7.4h-2.9h-2.9l0.4,2.7l0.4,2.7l-1.3-1.5
		C386.3,66.8,379.6,64.8,373.2,65.7 M251.7,68.9l0.2,2.1l4.4,0.2l4.4,0.2v22.8V117h-4.6h-4.6l0.2,2.4l0.2,2.4l13.6,0.2l13.6,0.2
		v-2.6V117h-4.3h-4.3V91.9V66.8H261h-9.4L251.7,68.9 M285.9,69v2.3h4.3h4.3l0.1,17c0,9.3,0,17.5,0,18.1c0,0.6,0.3,2.2,0.8,3.6
		c0.5,1.3,0.9,2.6,0.9,2.8c0,0.2,0.8,1.6,1.7,3c3.8,6.1,5,6.7,14.6,6.8c9.8,0.1,14.1-1.5,16.8-6.2l1.2-2l-0.4,3.9l-0.4,3.9h9.5h9.5
		v-2.6V117h-4.3h-4.3V91.9V66.8h-9.4h-9.4V69v2.3h4.3h4.3l0.1,16.1c0.1,23.3-0.2,24.6-6.4,28.5c-5.8,3.6-16.8,1.1-17.9-4.2
		c-0.1-0.4-0.4-1.3-0.7-1.9c-0.3-0.6-0.5-10.6-0.5-22.1v-21h-9.3l-9.3,0V69 M152,70.8c6.5,3.2,9.5,8.2,10.4,17.3l0.3,3.3h-15.5
		h-15.5L132,88c0.3-3.4,0.4-3.8,1.5-7.9C135.5,72.5,145.4,67.5,152,70.8"/>
</g>
</svg>
