<svg xmlns="http://www.w3.org/2000/svg" xmlns:xlink="http://www.w3.org/1999/xlink" xml:space="preserve" version="1.1" style="shape-rendering:geometricPrecision;text-rendering:geometricPrecision;image-rendering:optimizeQuality;" viewBox="0 0 60000 52000" x="0px" y="0px" fill-rule="evenodd" clip-rule="evenodd"><defs><style type="text/css">
   
    .fil0 {fill:white;fill-rule:nonzero}
   
  </style></defs><g><path class="fil0" d="M49991 38840c193,898 272,1718 255,2464 -44,1869 -698,3266 -1720,4286 -1010,1008 -2371,1634 -3851,1974 -1093,251 -2254,346 -3384,324 -975,303 -1768,927 -2561,1551 -1727,1360 -3455,2719 -7089,1364 -1178,882 -2736,1542 -4384,1478 -1332,-52 -2714,-572 -3990,-1819 -1129,191 -2164,172 -3060,-9 -942,-190 -1734,-560 -2325,-1052 -613,-511 -1013,-1152 -1149,-1866 -13,-66 -23,-133 -31,-200 -53,35 -106,69 -160,100 -807,473 -1659,516 -2432,328 -754,-183 -1432,-589 -1913,-1026 -209,-190 -385,-390 -517,-584 -3454,-1141 -3287,-2935 -3118,-4728 73,-779 146,-1557 -163,-2216l-2 -5 -1 0c-81,-178 -153,-367 -217,-567 -341,-1073 -343,-2292 84,-3400 428,-1112 1284,-2110 2657,-2734 215,-98 447,-187 699,-268 479,-207 849,-522 1158,-910 82,-120 165,-235 248,-345 331,-508 595,-1107 873,-1738 2920,-6629 5381,-4469 10537,-6700 2932,-1269 5872,-2541 9430,144 56,42 97,96 123,156l0 0c263,613 1277,451 2568,244 2153,-345 4960,-794 7151,1717 1126,32 2389,133 3460,796 1111,687 1977,1949 2200,4294 159,103 312,222 459,356 811,736 1433,1925 1653,3274 219,1342 45,2849 -731,4235 -207,370 -458,732 -756,1080zm-45283 -12721l-334 1214c-48,178 -213,293 -390,285l0 0 -1259 -57 1051 693c154,101 212,294 150,460l1 0 -442 1177 983 -785c146,-116 350,-110 489,5l978 780 -442 -1177c-68,-181 8,-381 171,-473l1031 -680 -1259 57c-191,8 -355,-123 -395,-303l-330 -1196zm-999 711l624 -2265c34,-130 134,-239 273,-277 206,-56 419,66 475,272l625 2270 2355 -107 0 0c132,-6 263,56 340,174 117,179 68,419 -111,536l-1966 1296 825 2194c52,126 36,276 -55,390 -133,168 -377,196 -545,62l-1842 -1470 -1842 1470 0 0c-103,82 -246,109 -378,59 -200,-75 -302,-299 -226,-500l829 -2206 -1949 -1285c-120,-70 -198,-203 -192,-351 9,-214 190,-380 404,-370l2355 107zm10868 -12284l-524 1902c-48,178 -213,293 -390,285l0 0 -1972 -90 1647 1086c154,101 212,294 150,460l1 0 -693 1845 1541 -1230c146,-116 350,-110 489,5l1535 1226 -693 -1845c-68,-181 8,-381 171,-473l1627 -1073 -1972 90c-191,8 -355,-123 -395,-303l-519 -1884zm-1188 1399l813 -2953c34,-130 134,-239 273,-277 206,-56 419,66 475,272l815 2958 3068 -139 0 1c132,-6 263,56 340,174 117,179 68,419 -111,536l-2562 1689 1076 2862c52,126 36,276 -55,390 -133,168 -377,196 -545,62l-2399 -1915 -2399 1915 0 0c-103,82 -246,109 -378,59 -200,-75 -302,-299 -226,-500l1080 -2874 -2545 -1678c-120,-70 -198,-203 -192,-351 9,-214 190,-380 404,-370l3068 139zm42279 8620l624 2265 2355 -107c214,-9 395,157 404,370 6,149 -72,281 -192,351l-1949 1285 829 2206c75,200 -26,424 -226,500 -132,50 -275,23 -378,-59l0 0 -1842 -1470 -1842 1470c-168,133 -412,105 -545,-62 -91,-114 -107,-264 -55,-390l825 -2194 -1966 -1296c-179,-117 -228,-357 -111,-536 78,-118 209,-180 340,-174l0 0 2355 107 625 -2270c56,-206 269,-328 475,-272 139,38 240,147 273,277zm-41 2768l-334 -1214 -330 1196c-40,180 -204,311 -395,303l-1259 -57 1031 680c163,93 239,293 171,473l-442 1177 978 -780c138,-115 342,-121 489,-5l983 785 -442 -1177 1 0c-63,-166 -5,-358 150,-460l1051 -693 -1259 57 0 0c-177,8 -342,-107 -390,-285zm-9829 -14341l813 2953 3068 -139c214,-9 395,157 404,370 6,149 -72,281 -192,351l-2545 1678 1080 2874c75,200 -26,424 -226,500 -132,50 -275,23 -378,-59l0 0 -2399 -1915 -2399 1915c-168,133 -412,105 -545,-62 -91,-114 -107,-264 -55,-390l1076 -2862 -2562 -1689c-179,-117 -228,-357 -111,-536 78,-118 209,-180 340,-174l0 -1 3068 139 815 -2958c56,-206 269,-328 475,-272 139,38 240,147 273,277zm149 3456l-524 -1902 -519 1884c-40,180 -204,311 -395,303l-1972 -90 1627 1073c163,93 239,293 171,473l-693 1845 1535 -1226c138,-115 342,-121 489,-5l1541 1230 -693 -1845 1 0c-63,-166 -5,-358 150,-460l1647 -1086 -1972 90 0 0c-177,8 -342,-107 -390,-285zm-15942 -8444l984 3573 3710 -169c214,-9 395,157 404,370 6,149 -72,281 -192,351l-3081 2032 1306 3476c75,200 -26,424 -226,500 -132,50 -275,23 -378,-59l0 0 -2902 -2317 -2902 2317c-168,133 -412,105 -545,-62 -91,-114 -107,-264 -55,-390l1302 -3464 -3099 -2043c-179,-117 -228,-357 -111,-536 78,-118 209,-180 340,-174l0 -1 3710 169 986 -3578c56,-206 269,-328 475,-272 139,38 240,147 273,277zm320 4076l-695 -2522 -690 2504c-40,180 -204,311 -395,303l-2614 -119 2163 1426c163,93 239,293 171,473l-920 2447 2038 -1627c138,-115 342,-121 489,-5l2043 1631 -920 -2447 1 0c-63,-166 -5,-358 150,-460l2183 -1440 -2614 119 0 0c-177,8 -342,-107 -390,-285zm2826 15420c-101,-88 -112,-240 -25,-342 88,-101 240,-112 342,-25 679,589 1724,1040 2852,971 883,-54 1820,-431 2677,-1317 93,-96 247,-98 343,-5 96,93 98,247 5,343 -951,983 -2001,1402 -2996,1463 -1265,78 -2436,-429 -3198,-1089zm-4719 8379c70,81 60,204 -21,273 -81,70 -204,60 -273,-21 -148,-172 -319,-331 -508,-472 -530,-396 -1193,-647 -1876,-668 -679,-21 -1379,187 -1986,708 -187,161 -367,352 -535,578 -64,86 -186,104 -272,39 -86,-64 -104,-186 -39,-272 185,-247 384,-460 594,-640 687,-590 1479,-824 2249,-801 766,24 1508,303 2098,744 210,157 402,336 570,531zm-2369 10054c-75,-111 -47,-261 64,-337 111,-75 261,-47 337,64 50,73 114,143 189,209 357,312 963,532 1648,565 692,34 1456,-125 2116,-575 223,-152 434,-336 626,-556 88,-101 241,-111 342,-23 101,88 111,241 23,342 -221,254 -463,465 -717,638 -504,343 -1059,539 -1605,619 302,772 628,1460 1107,2025 365,431 822,794 1431,1075 32,4 63,12 94,24 3363,1322 4948,74 6533,-1173 713,-561 1426,-1123 2298,-1493 663,-1194 336,-1578 -267,-2285 -87,-101 -178,-209 -278,-331 -58,-65 -67,-164 -16,-239 28,-41 69,-68 113,-79l0 0c966,-245 1697,-776 2182,-1446 326,-451 542,-966 642,-1500 100,-533 85,-1085 -48,-1611 -189,-743 -615,-1433 -1289,-1942 -79,47 -161,90 -246,129 -627,287 -1383,336 -2144,316 -134,-3 -239,-114 -236,-248 3,-134 114,-239 248,-236 700,18 1387,-23 1931,-272 519,-238 919,-678 1091,-1465 28,-131 157,-214 288,-186 131,28 214,157 186,288 -143,655 -422,1116 -792,1438 695,558 1138,1294 1339,2084 147,579 163,1188 53,1777 -111,588 -348,1156 -709,1655 -469,649 -1146,1180 -2020,1482 484,380 780,747 933,1096 123,279 156,547 120,801 -28,196 -95,381 -194,555 1027,12 2077,-80 3066,-307 1348,-310 2580,-871 3478,-1768 886,-884 1453,-2108 1492,-3755 15,-615 -44,-1289 -187,-2029 -257,196 -527,384 -799,572 -502,348 -1008,699 -1427,1105 -74,115 -145,238 -213,369 -49,95 -166,131 -261,82 -95,-49 -131,-166 -82,-261 77,-147 156,-284 239,-412 2,-4 5,-8 8,-12 546,-846 1198,-1301 1811,-1729 318,-222 625,-436 896,-697 240,-288 444,-587 615,-892 49,-87 95,-175 138,-264 5,-15 11,-30 16,-45 8,-24 20,-45 36,-62 520,-1115 627,-2296 453,-3360 -192,-1175 -722,-2200 -1410,-2824 -56,-50 -112,-98 -170,-143 -24,91 -51,180 -81,268 -377,1088 -1248,1923 -1875,2396 -86,65 -207,48 -272,-38 -64,-85 -48,-205 35,-270 482,-419 1114,-1099 1451,-1937 114,-284 195,-586 223,-903 -3,-15 -5,-29 -6,-45 -168,-2179 -904,-3308 -1850,-3894 -827,-512 -1846,-632 -2794,-671 232,505 394,1037 555,1569 195,642 390,1284 722,1853 108,185 46,423 -140,531 -185,108 -423,46 -531,-140 -372,-638 -582,-1329 -792,-2020 -381,-1254 -762,-2509 -2221,-3264 -21,-11 -41,-24 -60,-38 -1599,-742 -3373,-459 -4822,-227 -1463,234 -2642,423 -3229,-392 -1206,343 -2277,721 -3241,1350 -651,424 -1260,967 -1839,1697 -104,159 -221,309 -340,455 -219,310 -433,649 -645,1022l-32 56c-114,445 -4,988 593,1754 185,138 383,272 580,405 890,602 1751,1184 1551,2208 -21,105 -123,174 -228,153 -105,-21 -174,-123 -153,-228 151,-772 -605,-1283 -1387,-1812 -207,-140 -415,-280 -612,-429 -3,-2 -6,-4 -9,-7 -148,-112 -291,-229 -421,-353 -450,-428 -752,-924 -683,-1569 -1529,-5 -2789,534 -3793,1334 -1495,1190 -2435,2952 -2860,4367l-6 18c-333,945 -1027,1544 -1722,2143 -1136,980 -2273,1961 -1208,4695 272,698 597,2160 710,3467 83,964 49,1870 -205,2392 -51,279 -49,551 0,812 101,533 408,1020 881,1414 495,412 1169,724 1982,888 760,153 1638,176 2602,32 -512,-844 -619,-1769 -724,-2676 -89,-772 -177,-1530 -526,-2186 -50,-94 -15,-212 80,-262 94,-50 212,-15 262,80 136,254 235,517 311,787 170,494 284,1002 399,1510 265,1176 531,2353 1531,3359 980,789 2005,1130 2991,1169 1356,53 2654,-459 3678,-1171 -495,-273 -869,-604 -1168,-983 -524,-666 -803,-1468 -1084,-2366 -9,-23 -18,-46 -27,-69 -137,7 -273,7 -406,0 -793,-39 -1509,-306 -1944,-685 -107,-94 -199,-194 -271,-300zm-11459 -16368c72,-35 143,-66 214,-91 391,-143 760,-153 1089,-27 331,127 604,384 797,772 311,626 412,1632 187,3020 -34,211 -232,355 -443,322 -211,-34 -355,-232 -322,-443 197,-1218 127,-2064 -117,-2555 -101,-204 -230,-333 -378,-390 -150,-57 -335,-47 -546,30 -417,153 -895,542 -1379,1162 -430,678 -971,1236 -1791,1588l0 -1c-11,5 -23,9 -35,13 -221,70 -435,153 -641,247 -1168,531 -1893,1372 -2253,2306 -361,938 -359,1974 -69,2887 51,160 113,321 186,482l-1 0c396,847 313,1728 231,2609 -130,1385 -259,2770 2053,3722 -130,-613 -4,-1244 123,-1876 116,-582 233,-1163 117,-1707 -482,3 -941,-229 -1508,-599 -112,-73 -144,-223 -71,-335 73,-112 223,-144 335,-71 503,328 895,531 1266,520 366,-11 750,-234 1257,-756 93,-96 247,-98 343,-5 96,93 98,247 5,343 -462,477 -857,744 -1242,850 73,362 61,723 13,1085 5,294 -18,570 -41,845 -71,848 -140,1683 692,2610 15,14 30,28 45,42 399,362 957,697 1573,847 596,145 1249,114 1858,-243 221,-130 439,-304 651,-530 183,-365 198,-1132 124,-1982 -108,-1243 -409,-2613 -659,-3254 -1263,-3243 81,-4402 1424,-5560 614,-529 1227,-1059 1494,-1806 463,-1535 1487,-3445 3119,-4744 1184,-942 2682,-1564 4512,-1498 145,-300 359,-627 655,-987 719,-994 1483,-1704 2313,-2245 909,-593 1885,-975 2960,-1301 -2921,-1804 -5465,-704 -8003,394 -1420,615 -2839,1228 -4343,1384 157,97 308,205 458,313 409,294 817,588 1388,581 107,-1 195,84 196,191 1,107 -84,195 -191,196 -697,9 -1157,-321 -1617,-651 -575,-388 -1135,-477 -1636,-417 -199,24 -389,71 -567,132 -2310,1144 -3112,2963 -3822,4573l-4 9zm25762 2696c161,96 213,304 117,465 -96,161 -304,213 -465,117 -3018,-1809 -4078,-45 -5298,1983 -1271,2113 -2695,4482 -6286,4105 -186,-19 -322,-186 -303,-372 19,-186 186,-322 372,-303 3164,332 4470,-1840 5635,-3778 1407,-2339 2630,-4374 6228,-2217z"/></g></svg>